<?xml version="1.0" standalone="no"?>
<!DOCTYPE svg PUBLIC "-//W3C//DTD SVG 20010904//EN"
 "http://www.w3.org/TR/2001/REC-SVG-20010904/DTD/svg10.dtd">
<svg version="1.0" xmlns="http://www.w3.org/2000/svg"
 width="700.000000pt" height="700.000000pt" viewBox="0 0 700.000000 700.000000"
 preserveAspectRatio="xMidYMid meet">
<metadata>
Created by potrace 1.14, written by Peter Selinger 2001-2017
</metadata>
<g transform="translate(0.000000,700.000000) scale(0.100000,-0.100000)"
fill="#000000" stroke="none">
<path d="M0 3500 l0 -3500 3500 0 3500 0 0 3500 0 3500 -3500 0 -3500 0 0
-3500z m2935 2480 c70 -24 157 -71 281 -151 158 -102 248 -124 509 -123 271 0
436 34 820 165 183 62 216 70 261 66 119 -12 219 -88 248 -188 24 -78 20 -199
-8 -312 -27 -105 -46 -149 -83 -188 -20 -22 -23 -31 -14 -47 27 -51 5 -160
-43 -207 -88 -88 -439 -175 -706 -175 -57 0 -102 -4 -105 -10 -6 -10 12 -150
20 -159 3 -2 40 12 83 32 159 73 329 102 551 95 118 -4 157 -9 203 -27 71 -28
113 -56 151 -104 26 -32 29 -41 21 -64 -8 -23 -18 -29 -69 -40 -33 -7 -109
-12 -170 -13 -134 0 -324 -16 -423 -35 -89 -17 -219 -69 -290 -115 l-53 -35
43 -19 c37 -17 70 -20 228 -22 299 -3 508 -45 682 -136 122 -64 167 -102 204
-172 33 -63 28 -95 -19 -130 -31 -23 -16 -27 -199 54 -360 158 -835 175 -1039
37 -28 -19 -37 -38 -79 -167 -85 -263 -174 -460 -281 -621 -68 -102 -208 -253
-304 -329 l-60 -48 3 -148 c3 -157 -11 -270 -48 -365 -26 -69 -98 -172 -185
-266 -72 -78 -104 -102 -91 -68 3 8 -31 -14 -75 -51 -45 -36 -112 -86 -150
-111 l-69 -46 0 -47 c0 -80 21 -300 38 -405 l17 -100 50 -23 c58 -27 125 -88
125 -113 0 -14 -12 -19 -47 -24 -27 -4 -72 -11 -102 -16 -62 -10 -171 -12
-195 -3 -9 3 -16 11 -16 18 0 6 -12 25 -25 41 l-26 30 6 -32 c13 -65 -74 -78
-260 -36 -38 8 -74 18 -78 22 -4 4 -19 57 -32 117 -33 147 -86 313 -147 461
l-50 123 32 57 c18 32 51 83 75 113 94 122 128 201 145 333 14 114 -1 216 -49
337 -21 52 -46 129 -56 170 -10 41 -24 87 -32 103 -7 15 -81 94 -162 175 -151
150 -191 199 -191 240 0 30 11 28 46 -9 16 -17 42 -40 58 -51 l28 -21 -11 21
c-6 11 -15 24 -21 27 -31 19 -130 237 -130 286 0 18 38 -19 61 -61 23 -41 68
-77 54 -43 -53 127 -75 229 -75 350 0 109 15 202 42 265 36 85 44 78 41 -40
l-3 -107 25 85 c36 119 97 242 157 322 70 91 318 312 326 289 2 -5 -20 -55
-48 -110 l-50 -101 27 7 c35 10 131 8 161 -4 22 -8 21 -10 -21 -40 -72 -50
-255 -286 -292 -375 l-15 -38 26 10 c14 6 45 10 69 10 l43 0 -29 -31 c-89 -95
-143 -216 -138 -309 2 -29 -2 -55 -9 -62 -17 -17 -15 -139 3 -216 14 -60 66
-175 83 -186 5 -3 16 19 26 49 35 111 121 213 331 392 162 138 231 202 321
303 184 206 413 552 545 823 40 83 54 123 57 167 l4 57 -173 6 c-299 10 -411
38 -496 122 -62 63 -74 96 -46 133 33 44 62 49 166 25 51 -12 136 -37 188 -57
68 -25 126 -39 198 -47 56 -6 105 -9 107 -6 3 3 -7 33 -21 68 -14 35 -28 80
-31 101 -8 46 9 147 41 240 13 39 23 72 22 73 -1 1 -45 9 -97 19 -183 33 -485
150 -538 208 -44 49 -38 142 11 166 37 18 149 14 212 -8z"/>
<path d="M2301 1596 c-15 -18 -12 -68 13 -206 9 -52 19 -110 22 -128 4 -25 12
-35 41 -47 20 -9 52 -27 70 -41 20 -15 33 -20 33 -12 -2 29 -146 442 -156 445
-6 2 -17 -3 -23 -11z"/>
</g>
</svg>
